<?xml version="1.0" encoding="UTF-8"?>
<svg version="1.1" xmlns="http://www.w3.org/2000/svg" width="271" height="247">
<path d="M0 0 C1.95969727 -0.01441132 1.95969727 -0.01441132 3.95898438 -0.02911377 C5.40234197 -0.03396837 6.8457016 -0.03824556 8.2890625 -0.04199219 C9.77148438 -0.04774894 11.25390625 -0.0535066 12.73632812 -0.05926514 C15.86035508 -0.06980024 18.9843562 -0.075623 22.10839844 -0.07910156 C26.06286903 -0.08451947 30.01698346 -0.10838908 33.97134399 -0.13707352 C37.04480882 -0.1559643 40.11819352 -0.1609198 43.19171143 -0.16243744 C44.64579159 -0.1654176 46.09987201 -0.17328368 47.55389404 -0.18662262 C72.31693612 -0.39712329 93.69907804 5.65836602 112.1640625 22.78613281 C126.95297028 38.34454474 132.50911437 57.82921542 132.1875 78.91113281 C131.55931883 96.02751473 124.22805114 113.49065126 111.66015625 125.27441406 C110.23667029 126.5889724 108.79204548 127.88129291 107.3203125 129.14160156 C105.63938388 131.10698574 105.63938388 131.10698574 106.08764648 133.75146484 C107.1276789 138.04248188 108.83544649 141.76151152 110.73046875 145.73535156 C111.10638657 146.54100052 111.48230438 147.34664948 111.86961365 148.17671204 C113.06499598 150.73733661 114.26981314 153.29334766 115.4765625 155.84863281 C116.68628947 158.41488778 117.89376848 160.98208208 119.09422302 163.5526886 C119.83984557 165.1490408 120.59086523 166.74288552 121.34779358 168.33390808 C123.9140625 173.82364836 123.9140625 173.82364836 123.9140625 177.16113281 C114.04008672 179.0972065 103.37970808 177.8351094 94.9140625 172.16113281 C94.26050781 171.74734375 93.60695312 171.33355469 92.93359375 170.90722656 C88.21568176 167.41213896 85.68069238 163.22041498 83.17578125 158.00097656 C82.83278488 157.30022507 82.48978851 156.59947357 82.13639832 155.87748718 C78.20717118 147.80183889 74.45576219 139.64304692 70.7265625 131.47363281 C69.99037504 129.86512586 69.25412738 128.25664646 68.51782227 126.64819336 C66.31057707 121.82189471 64.11115037 116.99206238 61.9140625 112.16113281 C61.40123718 111.03433105 61.40123718 111.03433105 60.87805176 109.88476562 C58.9821377 105.71755889 57.09143252 101.54806275 55.20932007 97.37460327 C54.64015322 96.1132103 54.06987122 94.85231989 53.4984436 93.59194946 C52.71523583 91.86281089 51.9375378 90.1311798 51.16015625 88.39941406 C50.72372803 87.43044189 50.2872998 86.46146973 49.83764648 85.46313477 C48.9140625 83.16113281 48.9140625 83.16113281 48.9140625 81.16113281 C48.2540625 81.16113281 47.5940625 81.16113281 46.9140625 81.16113281 C46.79998047 81.84739746 46.68589844 82.53366211 46.56835938 83.24072266 C45.81449575 86.60554231 44.68179258 89.6683234 43.4453125 92.88769531 C43.20494263 93.51719086 42.96457275 94.1466864 42.71691895 94.79525757 C41.95300737 96.79365942 41.18372044 98.78993795 40.4140625 100.78613281 C39.64556753 102.78989803 38.87817628 104.79408212 38.11120605 106.7984314 C37.4164907 108.61226485 36.71905649 110.42505626 36.02148438 112.23779297 C35.27907851 114.19757424 34.5767773 116.1729884 33.9140625 118.16113281 C34.4709375 118.11472656 35.0278125 118.06832031 35.6015625 118.02050781 C41.51233189 117.7409444 46.12727569 118.5223965 50.9140625 122.16113281 C55.53437055 126.90591826 57.80164082 131.92551423 60.2265625 138.03613281 C60.76506836 139.35484375 60.76506836 139.35484375 61.31445312 140.70019531 C62.19077375 142.85010192 63.05695573 145.00351107 63.9140625 147.16113281 C62.9140625 148.16113281 62.9140625 148.16113281 58.94506836 148.2746582 C57.17300643 148.27449901 55.4009399 148.26880066 53.62890625 148.25878906 C52.69808731 148.25737411 51.76726837 148.25595917 50.8082428 148.25450134 C47.82265059 148.24888453 44.83713221 148.23632921 41.8515625 148.22363281 C39.83268337 148.21861998 37.81380307 148.2140567 35.79492188 148.20996094 C30.83460678 148.19890964 25.87434718 148.18163377 20.9140625 148.16113281 C20.77000977 148.93529541 20.62595703 149.70945801 20.47753906 150.50708008 C18.82952171 158.26947028 14.08769124 166.24799597 7.5859375 170.78613281 C0.19427319 175.38932496 -5.78656776 177.49005109 -14.4609375 177.28613281 C-15.19699219 177.27710938 -15.93304688 177.26808594 -16.69140625 177.25878906 C-18.4897263 177.23543426 -20.28787661 177.19957117 -22.0859375 177.16113281 C-15.22268423 158.22988987 -7.92510314 139.49203452 -0.49812317 120.77664185 C4.08401694 109.22287047 8.62697503 97.65365318 13.17150879 86.08505249 C14.16122416 83.56569485 15.15137874 81.04651059 16.14196777 78.52749634 C17.54057166 74.97072028 18.93836513 71.41362679 20.3359375 67.85644531 C20.96314697 66.26187248 20.96314697 66.26187248 21.60302734 64.63508606 C23.75272251 59.16006739 25.86656335 53.67521438 27.9140625 48.16113281 C32.37204294 48.01445903 36.82939304 47.92659906 41.2890625 47.84863281 C42.54074219 47.80673828 43.79242188 47.76484375 45.08203125 47.72167969 C54.1037973 47.60359374 60.5692171 48.76392804 67.62841797 54.5715332 C72.79987189 59.90160523 75.43680441 67.09834536 78.4140625 73.78613281 C78.95675781 74.98109375 79.49945313 76.17605469 80.05859375 77.40722656 C81.14247067 79.79485997 82.22196165 82.18448967 83.296875 84.57617188 C85.79852776 90.12180429 88.35540768 95.6415842 90.9140625 101.16113281 C98.38710198 93.91052329 101.52313956 85.49780856 101.984375 75.10644531 C101.68022217 62.36582135 97.1251893 51.67346147 88.32421875 42.50488281 C78.13277235 33.10477225 66.38236804 30.83700534 52.9765625 30.96582031 C51.85588379 30.96865021 50.73520508 30.9714801 49.58056641 30.97439575 C46.02495339 30.9855303 42.46959852 31.01062267 38.9140625 31.03613281 C36.49349324 31.04617129 34.07292 31.05529562 31.65234375 31.06347656 C25.73949626 31.08544761 19.82679783 31.11885791 13.9140625 31.16113281 C13.54345703 32.15290527 13.17285156 33.14467773 12.79101562 34.16650391 C4.87857384 55.33373598 -3.08084527 76.48211457 -11.15209961 97.58935547 C-14.45393545 106.22783318 -17.73334464 114.87351948 -20.9609375 123.54003906 C-21.8936009 126.03590796 -22.82674586 128.53159637 -23.75997925 131.0272522 C-24.33973087 132.5828218 -24.91678267 134.13940106 -25.49075317 135.69711304 C-37.52495452 168.35455964 -37.52495452 168.35455964 -52.05078125 175.15722656 C-57.59300477 176.9903687 -67.7126895 179.84775681 -73.0859375 177.16113281 C-71.20853861 170.66650836 -69.12591444 164.30203242 -66.75 157.97363281 C-66.43469833 157.12640656 -66.11939667 156.2791803 -65.79454041 155.40628052 C-64.77002071 152.65663515 -63.74067565 149.9088277 -62.7109375 147.16113281 C-61.98678586 145.22220977 -61.26274764 143.28324436 -60.53881836 141.34423828 C-55.77898658 128.61075092 -50.95807963 115.90137605 -46.08349609 103.21142578 C-41.9846684 92.5377945 -37.94280014 81.84331895 -33.91256714 71.14361572 C-27.90533954 55.19983192 -21.8558561 39.2728511 -15.72814941 23.37493896 C-14.96937696 21.40607974 -14.21147665 19.43688417 -13.45446777 17.46734619 C-12.40735092 14.74438918 -11.3566388 12.02285018 -10.3046875 9.30175781 C-9.83563995 8.08022507 -9.83563995 8.08022507 -9.3571167 6.83401489 C-6.72114569 0.03974997 -6.72114569 0.03974997 0 0 Z " fill="#525252" transform="translate(112.0859375,32.8388671875)"/>
</svg>
