<?xml version="1.0" encoding="UTF-8"?>
<svg version="1.1" xmlns="http://www.w3.org/2000/svg" width="416" height="683">
<path d="M0 0 C12.54 0 25.08 0 38 0 C38 27.39 38 54.78 38 83 C34.7 83 31.4 83 28 83 C28.33 85.31 28.66 87.62 29 90 C30.155 90.165 31.31 90.33 32.5 90.5 C50.2604018 94.51222347 63.42119918 106.4635124 73.46484375 121.140625 C82.50684424 135.98159846 83.37809944 154.44715862 79.4375 171.0625 C75.59308015 183.34589026 67.90100342 195.73266439 57 203 C59.14340537 211.59780348 62.02204092 219.8332422 65.125 228.125 C65.86428364 230.11625436 66.60185921 232.10813552 67.3392334 234.10009766 C67.83686344 235.44435772 68.33499142 236.78843355 68.83361816 238.13232422 C71.18888157 244.48714285 73.47215713 250.86706651 75.75 257.25 C78.6098366 265.24563706 81.55919733 273.19552634 84.70605469 281.08300781 C86.39479546 285.33527806 87.88837226 289.62136139 89.3125 293.96923828 C90.11687816 296.34523884 91.06387309 298.63701938 92.0625 300.9375 C94.07773536 305.85590967 95.15355964 310.76543463 96 316 C96.99 315.34 97.98 314.68 99 314 C98.566875 312.84371094 98.566875 312.84371094 98.125 311.6640625 C97.75375 310.66117187 97.3825 309.65828125 97 308.625 C96.62875 307.62726563 96.2575 306.62953125 95.875 305.6015625 C95 303 95 303 95 301 C98.16609462 299.12379578 100.35832401 298.90337178 104 299 C107.28408106 307.00058046 110.43341967 315.0312869 113.3125 323.1875 C113.56660645 323.90542725 113.82071289 324.62335449 114.08251953 325.36303711 C115.19734575 328.55253143 116.21386572 331.71503338 117 335 C113.38026598 336.31626692 110.90432869 337 107 337 C105.02 331.555 105.02 331.555 103 326 C102.34 326.33 101.68 326.66 101 327 C101.433125 328.05960937 101.86625 329.11921875 102.3125 330.2109375 C102.87518135 331.59888483 103.43767145 332.9869097 104 334.375 C104.28617187 335.07367188 104.57234375 335.77234375 104.8671875 336.4921875 C107 341.7734375 107 341.7734375 107 344 C123.54008669 336.11190409 140.03155767 327.83495326 154.16259766 316.01489258 C156 315 156 315 158.11181641 315.22753906 C160.6923057 316.2832241 161.95792111 317.8199367 163.75 319.9375 C164.36359375 320.64777344 164.9771875 321.35804688 165.609375 322.08984375 C167 324 167 324 167 326 C167.66 326 168.32 326 169 326 C170.69140625 327.609375 170.69140625 327.609375 172.5625 329.75 C173.18253906 330.44609375 173.80257813 331.1421875 174.44140625 331.859375 C176.0095169 334.01307083 176.4484868 335.44344034 177 338 C157.17755501 352.89220995 136.26534068 366.11426414 113 375 C113.66 377.64 114.32 380.28 115 383 C136.82954833 375.24745013 156.76944356 362.91419938 175.38476562 349.27294922 C178.16167138 347.24764399 180.85526847 345.40362407 184 344 C185.5 345.375 185.5 345.375 187 347 C187 347.66 187 348.32 187 349 C187.66 349 188.32 349 189 349 C190.53851766 350.71951974 192.00731759 352.50187497 193.4375 354.3125 C196.45235569 358.16467002 196.45235569 358.16467002 199.78515625 361.73046875 C201 363 201 363 201 365 C201.66 365 202.32 365 203 365 C203 365.99 203 366.98 203 368 C201.6121322 369.00725557 200.21120962 370.00112726 198.75195312 370.90185547 C197.01295331 371.99188071 195.39710156 373.1659345 193.765625 374.41015625 C173.40549217 389.81114244 150.75556881 402.6130508 127 412 C127 415.83203451 128.26984452 418.94700957 129.5625 422.5 C129.82627441 423.23597412 130.09004883 423.97194824 130.36181641 424.73022461 C133.5184537 433.50714877 136.75551432 442.25524718 140 451 C141.98 451 143.96 451 146 451 C146.83764268 452.95649397 147.66999059 454.91525556 148.5 456.875 C148.9640625 457.96554687 149.428125 459.05609375 149.90625 460.1796875 C151 463 151 463 151 465 C149.33333333 466 147.66666667 467 146 468 C146 468.66 146 469.32 146 470 C148.31 469.34 150.62 468.68 153 468 C153.39832031 469.134375 153.79664063 470.26875 154.20703125 471.4375 C154.74214459 472.95834843 155.27730327 474.47918091 155.8125 476 C156.20405273 477.11568359 156.20405273 477.11568359 156.60351562 478.25390625 C156.99506836 479.36572266 156.99506836 479.36572266 157.39453125 480.5 C157.6570166 481.24636719 157.91950195 481.99273437 158.18994141 482.76171875 C158.98650491 484.96271157 159.84032854 487.135231 160.69921875 489.3125 C162 493 162 493 162 497 C160.35 497.66 158.7 498.32 157 499 C157.33 499.66 157.66 500.32 158 501 C159.98 500.67 161.96 500.34 164 500 C168.30032752 510.39128322 172.07780374 520.87237119 175.5625 531.5625 C176.47800095 534.35628378 177.39644356 537.14908874 178.31640625 539.94140625 C178.539263 540.61942795 178.76211975 541.29744965 178.99172974 541.99601746 C180.48715101 546.52129435 182.06366082 551.00993325 183.68359375 555.4921875 C185.48097517 560.47601321 187.0932258 565.45678608 188.5 570.5625 C190.27678669 576.81557207 192.41480034 582.80936772 194.82421875 588.8515625 C196.02208156 592.0591287 196.97069838 595.26083705 197.875 598.5625 C199.5100901 604.5113034 201.44229029 610.30935663 203.5 616.125 C203.80284912 616.9816626 204.10569824 617.8383252 204.41772461 618.72094727 C205.00715525 620.38483584 205.59722127 622.0484995 206.18798828 623.71191406 C207.28513018 626.80343957 208.37172132 629.89748413 209.4375 633 C209.74558594 633.886875 210.05367188 634.77375 210.37109375 635.6875 C211 638 211 638 211 642 C210.01 642 209.02 642 208 642 C207.76273193 641.46342773 207.52546387 640.92685547 207.28100586 640.37402344 C205.47898529 636.3079707 203.66320879 632.24905335 201.81640625 628.203125 C198.00269512 619.83284797 194.318984 611.48774377 191.10546875 602.8671875 C189.66702589 599.13638517 188.0106034 595.52819119 186.328125 591.90234375 C184.77057676 588.49864274 183.28450472 585.06627793 181.8125 581.625 C181.32394531 580.48289062 180.83539063 579.34078125 180.33203125 578.1640625 C179.19097315 575.45363123 178.08066686 572.73495782 177 570 C173.72724974 570 171.153368 570.29925156 168 571 C167.47212891 570.21520264 167.47212891 570.21520264 166.93359375 569.41455078 C158.25667749 556.42897901 158.25667749 556.42897901 148.68359375 544.10546875 C146.61000671 541.51228217 144.8363426 538.76630692 143 536 C141.19221618 533.48106972 139.3465617 530.99059411 137.5 528.5 C128 515.6866485 128 515.6866485 128 513 C130 511.375 130 511.375 132 510 C131.67 509.34 131.34 508.68 131 508 C129.35 508.33 127.7 508.66 126 509 C123.61622887 504.43229484 121.67647148 499.81599411 119.875 495 C119.61074219 494.31421875 119.34648437 493.6284375 119.07421875 492.921875 C117.58458165 488.95959154 116.54132798 485.2249989 116 481 C117.65 480.67 119.3 480.34 121 480 C121 478.68 121 477.36 121 476 C120.401875 476.33 119.80375 476.66 119.1875 477 C117 478 117 478 114 478 C112.35 473.38 110.7 468.76 109 464 C112 462 112 462 115 462 C114.6596875 461.10023438 114.319375 460.20046875 113.96875 459.2734375 C112.3011477 454.85318122 110.64852717 450.42740168 109 446 C108.64711914 445.05334473 108.29423828 444.10668945 107.93066406 443.13134766 C106.82313311 440.15211862 105.723186 437.17018496 104.625 434.1875 C104.08842773 432.74673096 104.08842773 432.74673096 103.54101562 431.27685547 C103.21037109 430.37467285 102.87972656 429.47249023 102.5390625 428.54296875 C102.24209473 427.73883545 101.94512695 426.93470215 101.63916016 426.10620117 C101 424 101 424 101 421 C100.37883301 421.16081055 99.75766602 421.32162109 99.11767578 421.48730469 C73.03088379 428.16987044 47.23904765 432.23508292 20.3125 432.3125 C19.43849548 432.31511841 18.56449097 432.31773682 17.66400146 432.32043457 C-5.59026048 432.32783786 -28.4427551 429.81890712 -51 424 C-52.85238281 423.54560547 -52.85238281 423.54560547 -54.7421875 423.08203125 C-57.49925575 422.40390707 -60.25137745 421.71140819 -63 421 C-65.69071103 425.08383065 -67.31856377 429.3342125 -68.875 433.9375 C-69.39553688 435.44541487 -69.91637541 436.95322564 -70.4375 438.4609375 C-70.69660156 439.21600586 -70.95570312 439.97107422 -71.22265625 440.74902344 C-72.41319804 444.19650941 -73.64305747 447.62963616 -74.875 451.0625 C-75.28492187 452.20847656 -75.69484375 453.35445313 -76.1171875 454.53515625 C-76.40851563 455.34855469 -76.69984375 456.16195313 -77 457 C-74.525 458.485 -74.525 458.485 -72 460 C-72.45363171 461.58468677 -72.91311452 463.16769924 -73.375 464.75 C-73.63023438 465.63171875 -73.88546875 466.5134375 -74.1484375 467.421875 C-74.9209934 469.76080572 -75.83625676 471.83442562 -77 474 C-78.98 473.67 -80.96 473.34 -83 473 C-83.33 473.99 -83.66 474.98 -84 476 C-82.35 476.33 -80.7 476.66 -79 477 C-80.43837533 486.9088078 -84.24526926 495.78384273 -88 505 C-90.31 504.67 -92.62 504.34 -95 504 C-95.33 505.32 -95.66 506.64 -96 508 C-95.195625 508.12375 -94.39125 508.2475 -93.5625 508.375 C-92.2940625 508.684375 -92.2940625 508.684375 -91 509 C-90.67 509.66 -90.34 510.32 -90 511 C-91.0504257 513.38035064 -92.16268199 515.64047641 -93.375 517.9375 C-94.12431705 519.39354415 -94.87163257 520.85061966 -95.6171875 522.30859375 C-96.2064502 523.45884033 -96.2064502 523.45884033 -96.80761719 524.63232422 C-98.78165917 528.55211519 -100.6383112 532.52594036 -102.5 536.5 C-105.59128017 543.0765016 -108.7752105 549.59562435 -112.05078125 556.08203125 C-114.79865796 561.54507186 -117.40063771 567.07013307 -119.98486328 572.61206055 C-123.51160459 580.14757182 -127.2457967 587.57585233 -131 595 C-131.33 595.66 -131.66 596.32 -132 597 C-133.32 596.67 -134.64 596.34 -136 596 C-136.27457031 596.69351563 -136.54914063 597.38703125 -136.83203125 598.1015625 C-140.42997144 607.03023013 -144.33713893 615.7982228 -148.44824219 624.49975586 C-151.15340052 630.2561692 -153.6170381 636.10299289 -156 642 C-157.32 642 -158.64 642 -160 642 C-159.41069158 636.30628782 -158.33894967 631.04658605 -156.75 625.5546875 C-156.53182617 624.7811795 -156.31365234 624.00767151 -156.08886719 623.21072388 C-155.39804125 620.76389425 -154.69962179 618.31932777 -154 615.875 C-153.30130325 613.42328854 -152.60435338 610.97111848 -151.91113281 608.51785278 C-151.48158724 606.99871998 -151.04882423 605.48049194 -150.61230469 603.96334839 C-149.48719604 599.99514219 -148.58955665 596.08284003 -148 592 C-148.66 591.67 -149.32 591.34 -150 591 C-149.24010638 584.20043244 -147.50260716 577.68238669 -145.8125 571.0625 C-145.17312373 568.53256557 -144.53380169 566.00261743 -143.89453125 563.47265625 C-143.4142749 561.57990967 -143.4142749 561.57990967 -142.92431641 559.64892578 C-141.60374827 554.43571624 -140.30151302 549.21799255 -139 544 C-138.51574084 542.06247104 -138.03136396 540.12497151 -137.546875 538.1875 C-137.30001953 537.20007813 -137.05316406 536.21265625 -136.79882812 535.1953125 C-133.53255208 522.13020833 -130.26627604 509.06510417 -127 496 C-124.69 496.66 -122.38 497.32 -120 498 C-120 497.01 -120 496.02 -120 495 C-121.65 494.34 -123.3 493.68 -125 493 C-123.58151791 486.85797255 -121.69218214 481.03196776 -119.5 475.125 C-119.19191406 474.27164062 -118.88382813 473.41828125 -118.56640625 472.5390625 C-118.11587891 471.31703125 -118.11587891 471.31703125 -117.65625 470.0703125 C-117.25116211 468.96840576 -117.25116211 468.96840576 -116.83789062 467.84423828 C-116 466 -116 466 -114 464 C-112.68 464.66 -111.36 465.32 -110 466 C-109.34 465.01 -108.68 464.02 -108 463 C-109.98 462.67 -111.96 462.34 -114 462 C-110.92482916 451.44191344 -110.92482916 451.44191344 -109 447 C-107.02 447.33 -105.04 447.66 -103 448 C-101.64864653 444.35636493 -100.29775883 440.71255753 -98.94726562 437.06860352 C-98.26716183 435.23379969 -97.58671041 433.39912473 -96.90625 431.56445312 C-94.24583949 424.38525712 -91.60582651 417.19919467 -89 410 C-89.57331055 409.41259033 -90.14662109 408.82518066 -90.73730469 408.2199707 C-98.75755046 399.87187161 -101.6506327 392.46786969 -101.46655273 380.89770508 C-100.94523048 369.63794428 -96.15517867 362.55879656 -88 355 C-85.23369101 352.90202196 -82.44879719 351.37412897 -79.05053711 350.49658203 C-75.89686643 349.63728574 -73.6596742 348.93444339 -71.72924805 346.19995117 C-70.70546752 343.93497504 -69.88968792 341.6772974 -69.125 339.3125 C-68.84398438 338.53455078 -68.56296875 337.75660156 -68.2734375 336.95507812 C-66.53444774 332.03751038 -65.19476263 327.07484127 -64 322 C-64.66 322 -65.32 322 -66 322 C-67.32 325.96 -68.64 329.92 -70 334 C-76.15234375 332.73046875 -76.15234375 332.73046875 -78 332 C-79.3189597 328.0431209 -78.36381341 326.42096356 -77 322.5 C-76.66802612 321.53694946 -76.66802612 321.53694946 -76.3293457 320.55444336 C-73.34998387 311.99017483 -70.17270351 303.4940679 -67 295 C-64.03 295.66 -61.06 296.32 -58 297 C-58.71452588 301.76350585 -59.79534844 306.34201396 -61 311 C-60.34 311.33 -59.68 311.66 -59 312 C-58.89042969 311.16339844 -58.78085938 310.32679688 -58.66796875 309.46484375 C-57.93253173 305.65003299 -56.71415887 302.16860213 -55.3125 298.5625 C-54.9110376 297.50881226 -54.9110376 297.50881226 -54.50146484 296.43383789 C-52.76875872 291.91022637 -50.9560251 287.42225736 -49.125 282.9375 C-46.37159401 276.1513006 -43.97788261 269.26152081 -41.60742188 262.33374023 C-37.29974675 249.82884812 -32.68652275 237.4339353 -28.10375977 225.02783203 C-27.46759439 223.29981068 -26.83144464 221.57178358 -26.1953125 219.84375 C-25.7566964 218.66212784 -25.7566964 218.66212784 -25.30921936 217.45663452 C-23.67463922 213.01101534 -22.24134611 208.57154674 -21 204 C-21.88042969 203.154375 -22.76085937 202.30875 -23.66796875 201.4375 C-37.54677204 187.95705501 -45.76516659 173.49770919 -46.25 153.5625 C-45.83365016 135.26912869 -39.30540498 118.73090563 -26 106 C-15.87043534 97.5865385 -3.56501226 90 10 90 C10 87.69 10 85.38 10 83 C6.7 83 3.4 83 0 83 C0 55.61 0 28.22 0 0 Z M-18 112 C-18.33 112.99 -18.66 113.98 -19 115 C-19.99 115.33 -20.98 115.66 -22 116 C-24.40995366 118.63541018 -24.40995366 118.63541018 -25 122 C-25.66 122 -26.32 122 -27 122 C-34.87178567 136.62347536 -38.65212203 151.44929467 -34.1171875 167.83984375 C-28.79614798 182.89131569 -20.45413731 193.67872567 -6.25 201.3125 C8.59408125 208.33283224 22.77053443 208.05839974 38 203 C51.82390173 197.32201789 62.53783893 186.47473403 68.3828125 172.75390625 C73.10875411 158.46041152 72.56693958 142.93918689 66.1875 129.2890625 C59.53688656 116.46913002 49.65183682 106.64983959 35.78515625 101.8984375 C33.2099479 101.18917806 30.60667855 100.58307283 28 100 C28 104.29 28 108.58 28 113 C22.06 113.33 16.12 113.66 10 114 C10 109.38 10 104.76 10 100 C0.12739962 100 -10.42989739 105.90346699 -18 112 Z M16 216 C12.60673739 225.14574625 9.22374828 234.2928959 6 243.5 C3.60925767 250.32714665 1.12650041 257.11701411 -1.39013672 263.89868164 C-3.36157955 269.22506463 -5.25990252 274.57307833 -7.125 279.9375 C-8.8106436 284.78247693 -10.59774252 289.5341541 -12.625 294.25 C-14.32737195 298.22220121 -15.71370926 302.16772726 -16.9375 306.3125 C-18.49921661 311.58251581 -20.40167235 316.60991052 -22.4987793 321.68823242 C-25.37154785 328.74152906 -27.81676806 335.94101837 -30.28417969 343.14404297 C-30.60805664 344.08908691 -30.93193359 345.03413086 -31.265625 346.0078125 C-31.55211914 346.84973145 -31.83861328 347.69165039 -32.13378906 348.55908203 C-33.02425774 351.0683565 -33.99530837 353.53448894 -35 356 C-32.35658005 356.63689416 -29.71087603 357.2593017 -27.0625 357.875 C-26.34642578 358.04902344 -25.63035156 358.22304688 -24.89257812 358.40234375 C-11.20214685 361.54823009 2.58581374 362.33441677 16.58398438 362.26074219 C18.99895304 362.25000466 21.41317829 362.26072725 23.828125 362.2734375 C37.244474 362.28586328 50.41993527 361.18214975 63.5625 358.375 C64.80128906 358.11460937 66.04007812 357.85421875 67.31640625 357.5859375 C68.20199219 357.39257812 69.08757812 357.19921875 70 357 C69.35117295 351.716694 67.70028826 347.12231536 65.8125 342.1875 C65.17216717 340.48345207 64.53286347 338.77901711 63.89453125 337.07421875 C63.57436035 336.22134277 63.25418945 335.3684668 62.92431641 334.48974609 C61.57023423 330.84237948 60.28194954 327.17321158 59 323.5 C55.77430047 314.29340565 52.38985398 305.14716548 49 296 C44.7214228 284.44907459 40.5074049 272.87686248 36.34521484 261.28344727 C33.73134065 254.01008249 31.07745501 246.7525842 28.39599609 239.50390625 C25.51277702 231.70165287 22.63051188 223.89153563 20 216 C18.68 216 17.36 216 16 216 Z M-76.75 372.25 C-80.07628937 376.31546479 -81.0624376 379.25174724 -80.875 384.5 C-79.57160533 389.71357866 -77.68715496 392.87523003 -73.1875 395.875 C-68.94805315 397.37127536 -65.33465531 398.06864635 -61.10546875 396.1328125 C-59.37591882 395.13513528 -57.6858497 394.06986616 -56 393 C-51.88274881 391.62758294 -48.89070872 393.00456526 -44.875 394.1875 C-26.96268088 399.15694884 -8.57345585 401.69011132 10 402 C10.78036621 402.01514648 11.56073242 402.03029297 12.36474609 402.04589844 C17.91265324 402.13857075 23.4525911 402.11064215 29 402 C29.71945801 401.98743164 30.43891602 401.97486328 31.18017578 401.96191406 C49.51915417 401.55112095 73.36264281 400.31867859 90 392 C89.01 389.03 88.02 386.06 87 383 C85.65550781 383.32613281 84.31101562 383.65226562 82.92578125 383.98828125 C81.05480161 384.43017091 79.18370098 384.87154852 77.3125 385.3125 C76.43916016 385.52583984 75.56582031 385.73917969 74.66601562 385.95898438 C56.27412208 390.25256231 38.15415794 391.54703933 19.3125 391.4375 C17.66880936 391.43343643 17.66880936 391.43343643 15.99191284 391.42929077 C0.64004623 391.37177113 -14.33781512 390.98053727 -29.37597656 387.58544922 C-32.10262071 386.97710416 -34.8376739 386.47334621 -37.5859375 385.97265625 C-49.62895604 383.56690738 -49.62895604 383.56690738 -53.1328125 379.5625 C-54.4375 376.875 -54.4375 376.875 -55.18359375 374.3046875 C-56.21378857 371.39648202 -57.35894054 370.53460468 -60 369 C-66.7446886 367.5857911 -71.20070312 367.70966619 -76.75 372.25 Z " fill="#4b4a4a" transform="translate(191,16)"/>
<path d="M0 0 C1.73546076 2.60319113 2.65175233 4.52267237 3.625 7.4375 C3.88539063 8.19933594 4.14578125 8.96117187 4.4140625 9.74609375 C5 12 5 12 5 16 C4.01 16 3.02 16 2 16 C-1 10.375 -1 10.375 -1 7 C-0.34 7 0.32 7 1 7 C0.67 4.69 0.34 2.38 0 0 Z " fill="#4b4a4a" transform="translate(397,642)"/>
<path d="M0 0 C0.33 0.66 0.66 1.32 1 2 C0.06421005 4.35981813 -0.93347808 6.69631264 -2 9 C-3.32 9 -4.64 9 -6 9 C-6 7.35 -6 5.7 -6 4 C-5.38125 3.896875 -4.7625 3.79375 -4.125 3.6875 C-1.63473516 3.12474627 -1.63473516 3.12474627 0 0 Z " fill="#4b4a4a" transform="translate(37,649)"/>
<path d="M0 0 C0.99 0.33 1.98 0.66 3 1 C3 1.66 3 2.32 3 3 C2.01 3.66 1.02 4.32 0 5 C-1.20450304 7.55183404 -1.20450304 7.55183404 -2 10 C-3.39195915 5.82412255 -1.82323219 3.86525224 0 0 Z " fill="#4b4a4a" transform="translate(76,480)"/>
</svg>
